<?xml version="1.0" encoding="UTF-8"?>
<svg width="128" height="128" viewBox="0 0 128 128" fill="none" xmlns="http://www.w3.org/2000/svg">
  <!-- Favicon/Icon Version -->
  
  <!-- Background -->
  <rect width="128" height="128" rx="24" fill="url(#gradient-bg)"/>
  
  <!-- Main Eye/Sentinel Symbol -->
  <ellipse cx="64" cy="64" rx="40" ry="28" fill="#2E7D32" opacity="0.8"/>
  <ellipse cx="64" cy="64" rx="25" ry="18" fill="#4CAF50"/>
  <circle cx="64" cy="64" r="10" fill="#1B5E20"/>
  <circle cx="66" cy="62" r="3" fill="#81C784"/>
  
  <!-- Corner Data Points -->
  <g fill="#00BCD4">
    <circle cx="24" cy="24" r="3"/>
    <circle cx="104" cy="24" r="3"/>
    <circle cx="24" cy="104" r="3"/>
    <circle cx="104" cy="104" r="3"/>
  </g>
  
  <!-- Connecting Lines -->
  <g stroke="#00BCD4" stroke-width="2" opacity="0.6">
    <line x1="24" y1="24" x2="44" y2="44"/>
    <line x1="104" y1="24" x2="84" y2="44"/>
    <line x1="24" y1="104" x2="44" y2="84"/>
    <line x1="104" y1="104" x2="84" y2="84"/>
  </g>
  
  <!-- Small Environmental Indicators -->
  <g opacity="0.8">
    <!-- Tree -->
    <rect x="19" y="108" width="2" height="6" fill="#4E342E"/>
    <circle cx="20" cy="106" r="3" fill="#388E3C"/>
    
    <!-- Water -->
    <path d="M104 18 Q106 20 106 23 Q106 25 104 25 Q102 25 102 23 Q102 20 104 18 Z" fill="#1976D2"/>
  </g>
  
  <!-- Gradient Definition -->
  <defs>
    <linearGradient id="gradient-bg" x1="0%" y1="0%" x2="100%" y2="100%">
      <stop offset="0%" style="stop-color:#E8F5E8;stop-opacity:1" />
      <stop offset="100%" style="stop-color:#A5D6A7;stop-opacity:1" />
    </linearGradient>
  </defs>
</svg>
