<?xml version="1.0" encoding="UTF-8"?>
<svg width="64" height="64" viewBox="0 0 64 64" xmlns="http://www.w3.org/2000/svg">
  <defs>
    <!-- Gradient definitions for depth and modern AI feel -->
    <linearGradient id="leafGradient" x1="0%" y1="0%" x2="100%" y2="100%">
      <stop offset="0%" style="stop-color:#2E7D32;stop-opacity:1" />
      <stop offset="50%" style="stop-color:#4CAF50;stop-opacity:1" />
      <stop offset="100%" style="stop-color:#66BB6A;stop-opacity:1" />
    </linearGradient>
    
    <linearGradient id="aiGradient" x1="0%" y1="0%" x2="100%" y2="100%">
      <stop offset="0%" style="stop-color:#1976D2;stop-opacity:1" />
      <stop offset="50%" style="stop-color:#2196F3;stop-opacity:1" />
      <stop offset="100%" style="stop-color:#42A5F5;stop-opacity:1" />
    </linearGradient>
    
    <linearGradient id="communityGradient" x1="0%" y1="0%" x2="100%" y2="100%">
      <stop offset="0%" style="stop-color:#FF8F00;stop-opacity:1" />
      <stop offset="100%" style="stop-color:#FFA726;stop-opacity:1" />
    </linearGradient>

    <!-- Subtle glow effect for AI elements -->
    <filter id="glow">
      <feGaussianBlur stdDeviation="1" result="coloredBlur"/>
      <feMerge> 
        <feMergeNode in="coloredBlur"/>
        <feMergeNode in="SourceGraphic"/>
      </feMerge>
    </filter>
  </defs>
  
  <!-- Background circle with subtle AI gradient -->
  <circle cx="32" cy="32" r="30" fill="url(#aiGradient)" opacity="0.08" stroke="url(#aiGradient)" stroke-width="0.5"/>
  
  <!-- Central leaf/nature element (representing environmental focus) -->
  <path d="M32 10 C42 10, 50 18, 50 28 C50 38, 42 46, 32 46 C32 38, 32 30, 32 22 C28 18, 24 14, 18 12 C24 11, 28 10, 32 10 Z" 
        fill="url(#leafGradient)" filter="url(#glow)"/>
  
  <!-- Secondary leaf for balance -->
  <path d="M32 46 C22 46, 14 38, 14 28 C14 18, 22 10, 32 10 C32 18, 32 26, 32 34 C36 38, 40 42, 46 44 C40 45, 36 46, 32 46 Z" 
        fill="url(#leafGradient)" opacity="0.7"/>
  
  <!-- AI Neural network nodes (representing intelligence) -->
  <circle cx="16" cy="18" r="1.5" fill="url(#aiGradient)" opacity="0.9"/>
  <circle cx="48" cy="20" r="1.5" fill="url(#aiGradient)" opacity="0.9"/>
  <circle cx="14" cy="46" r="1.5" fill="url(#aiGradient)" opacity="0.9"/>
  <circle cx="50" cy="44" r="1.5" fill="url(#aiGradient)" opacity="0.9"/>
  
  <!-- AI connection lines (neural network representing intelligence) -->
  <path d="M16 18 L32 28 L48 20" stroke="url(#aiGradient)" stroke-width="0.8" opacity="0.6" fill="none"/>
  <path d="M14 46 L32 36 L50 44" stroke="url(#aiGradient)" stroke-width="0.8" opacity="0.6" fill="none"/>
  <path d="M16 18 L14 46" stroke="url(#aiGradient)" stroke-width="0.5" opacity="0.4" fill="none"/>
  <path d="M48 20 L50 44" stroke="url(#aiGradient)" stroke-width="0.5" opacity="0.4" fill="none"/>
  
  <!-- Community elements (stylized buildings/people at bottom) -->
  <rect x="10" y="52" width="2" height="6" fill="url(#communityGradient)" rx="0.5"/>
  <rect x="14" y="50" width="2" height="8" fill="url(#communityGradient)" rx="0.5"/>
  <rect x="18" y="54" width="2" height="4" fill="url(#communityGradient)" rx="0.5"/>
  
  <rect x="44" y="53" width="2" height="5" fill="url(#communityGradient)" rx="0.5"/>
  <rect x="48" y="51" width="2" height="7" fill="url(#communityGradient)" rx="0.5"/>
  <rect x="52" y="55" width="2" height="3" fill="url(#communityGradient)" rx="0.5"/>
  
  <!-- Environmental monitoring waves (representing data streams) -->
  <path d="M6 30 Q14 26, 22 30 Q30 34, 38 30 Q46 26, 54 30" 
        stroke="url(#leafGradient)" stroke-width="1" opacity="0.4" fill="none"/>
  <path d="M6 34 Q14 30, 22 34 Q30 38, 38 34 Q46 30, 54 34" 
        stroke="url(#leafGradient)" stroke-width="0.8" opacity="0.3" fill="none"/>
  
  <!-- Central AI core (representing the intelligence hub) -->
  <circle cx="32" cy="32" r="2.5" fill="url(#aiGradient)" stroke="white" stroke-width="0.8" filter="url(#glow)"/>
  <circle cx="32" cy="32" r="1.2" fill="white" opacity="0.9"/>
  
  <!-- Subtle environmental data points -->
  <circle cx="8" cy="16" r="0.8" fill="url(#leafGradient)" opacity="0.6"/>
  <circle cx="56" cy="14" r="0.8" fill="url(#leafGradient)" opacity="0.6"/>
  <circle cx="6" cy="48" r="0.8" fill="url(#leafGradient)" opacity="0.6"/>
  <circle cx="58" cy="50" r="0.8" fill="url(#leafGradient)" opacity="0.6"/>
</svg>
