<?xml version="1.0" encoding="UTF-8"?>
<svg width="400" height="120" viewBox="0 0 400 120" fill="none" xmlns="http://www.w3.org/2000/svg">
  <!-- Horizontal Logo with Text -->
  
  <!-- Icon Container -->
  <circle cx="60" cy="60" r="50" fill="url(#gradient-bg)" stroke="#2E7D32" stroke-width="3"/>
  
  <!-- Simplified Eye/Sentinel -->
  <ellipse cx="60" cy="60" rx="30" ry="20" fill="#4CAF50" opacity="0.4"/>
  <circle cx="60" cy="60" r="12" fill="#2E7D32"/>
  <circle cx="62" cy="58" r="3" fill="#81C784"/>
  
  <!-- Data Points -->
  <g fill="#00BCD4" opacity="0.8">
    <circle cx="35" cy="35" r="2"/>
    <circle cx="85" cy="35" r="2"/>
    <circle cx="35" cy="85" r="2"/>
    <circle cx="85" cy="85" r="2"/>
  </g>
  
  <!-- Connection Lines -->
  <g stroke="#00BCD4" stroke-width="1.5" opacity="0.6">
    <line x1="35" y1="35" x2="48" y2="48"/>
    <line x1="85" y1="35" x2="72" y2="48"/>
    <line x1="35" y1="85" x2="48" y2="72"/>
    <line x1="85" y1="85" x2="72" y2="72"/>
  </g>
  
  <!-- Main Title -->
  <text x="130" y="45" font-family="Arial, sans-serif" font-size="32" font-weight="bold" fill="#2E7D32">
    EcoSentinel
  </text>
  
  <!-- AI Badge -->
  <rect x="340" y="25" width="35" height="20" rx="10" fill="#00BCD4"/>
  <text x="357.5" y="37" font-family="Arial, sans-serif" font-size="10" font-weight="bold" fill="white" text-anchor="middle">AI</text>
  
  <!-- Subtitle -->
  <text x="130" y="70" font-family="Arial, sans-serif" font-size="14" fill="#4CAF50" font-weight="500">
    Community-Driven Environmental Intelligence
  </text>
  
  <!-- Location Indicator -->
  <text x="130" y="90" font-family="Arial, sans-serif" font-size="11" fill="#757575" font-style="italic">
    From Kibera to Kisumu • Eldoret to Mandera
  </text>
  
  <!-- Environmental Icons -->
  <g transform="translate(340, 60)" fill="#4CAF50" opacity="0.7">
    <!-- Leaf -->
    <path d="M0 15 Q5 5 15 8 Q12 12 8 15 Q4 18 0 15 Z"/>
    <!-- Water -->
    <path d="M20 8 Q23 12 23 16 Q23 19 20 19 Q17 19 17 16 Q17 12 20 8 Z" fill="#2196F3"/>
  </g>
  
  <!-- Gradient Definition -->
  <defs>
    <linearGradient id="gradient-bg" x1="0%" y1="0%" x2="100%" y2="100%">
      <stop offset="0%" style="stop-color:#E8F5E8;stop-opacity:1" />
      <stop offset="100%" style="stop-color:#C8E6C9;stop-opacity:1" />
    </linearGradient>
  </defs>
</svg>
